<svg width="20" height="20" viewBox="0 0 20 20" fill="none" xmlns="http://www.w3.org/2000/svg">
<path d="M8.21431 4.28585H11.7857C11.7857 3.81225 11.5976 3.35805 11.2627 3.02316C10.9278 2.68828 10.4736 2.50014 10 2.50014C9.52643 2.50014 9.07222 2.68828 8.73734 3.02316C8.40245 3.35805 8.21431 3.81225 8.21431 4.28585ZM7.14288 4.28585C7.14288 3.52809 7.4439 2.80137 7.97972 2.26555C8.51554 1.72973 9.24226 1.42871 10 1.42871C10.7578 1.42871 11.4845 1.72973 12.0203 2.26555C12.5561 2.80137 12.8572 3.52809 12.8572 4.28585H17.3215C17.4635 4.28585 17.5998 4.34229 17.7003 4.44276C17.8007 4.54323 17.8572 4.67949 17.8572 4.82157C17.8572 4.96365 17.8007 5.09991 17.7003 5.20038C17.5998 5.30084 17.4635 5.35728 17.3215 5.35728H16.3857L15.5165 15.788C15.4532 16.5468 15.1071 17.2541 14.5468 17.7697C13.9865 18.2853 13.2529 18.5715 12.4915 18.5716H7.5086C6.74716 18.5715 6.01355 18.2853 5.45324 17.7697C4.89293 17.2541 4.54684 16.5468 4.4836 15.788L3.61431 5.35728H2.6786C2.53652 5.35728 2.40026 5.30084 2.29979 5.20038C2.19932 5.09991 2.14288 4.96365 2.14288 4.82157C2.14288 4.67949 2.19932 4.54323 2.29979 4.44276C2.40026 4.34229 2.53652 4.28585 2.6786 4.28585H7.14288ZM5.55145 15.6987C5.5923 16.1897 5.81619 16.6474 6.1787 16.9811C6.54122 17.3148 7.01589 17.5 7.5086 17.5001H12.4915C12.9842 17.5 13.4588 17.3148 13.8214 16.9811C14.1839 16.6474 14.4077 16.1897 14.4486 15.6987L15.3115 5.35728H4.68931L5.55145 15.6987ZM8.39288 7.85728C8.53496 7.85728 8.67122 7.91372 8.77169 8.01419C8.87216 8.11466 8.9286 8.25092 8.9286 8.393V14.4644C8.9286 14.6065 8.87216 14.7428 8.77169 14.8432C8.67122 14.9437 8.53496 15.0001 8.39288 15.0001C8.2508 15.0001 8.11454 14.9437 8.01408 14.8432C7.91361 14.7428 7.85717 14.6065 7.85717 14.4644V8.393C7.85717 8.25092 7.91361 8.11466 8.01408 8.01419C8.11454 7.91372 8.2508 7.85728 8.39288 7.85728ZM12.1429 8.393C12.1429 8.25092 12.0864 8.11466 11.986 8.01419C11.8855 7.91372 11.7492 7.85728 11.6072 7.85728C11.4651 7.85728 11.3288 7.91372 11.2284 8.01419C11.1279 8.11466 11.0715 8.25092 11.0715 8.393V14.4644C11.0715 14.6065 11.1279 14.7428 11.2284 14.8432C11.3288 14.9437 11.4651 15.0001 11.6072 15.0001C11.7492 15.0001 11.8855 14.9437 11.986 14.8432C12.0864 14.7428 12.1429 14.6065 12.1429 14.4644V8.393Z" fill="#FF0000"/>
</svg>
